<svg width="634" height="135" viewBox="0 0 634 135" fill="none" xmlns="http://www.w3.org/2000/svg">
<path d="M0.941317 8.16868V0.181817H38.5713V8.16868H24.5439V46H14.9687V8.16868H0.941317ZM39.021 46V11.6364H48.2607V17.6321H48.6187C49.2451 15.4993 50.2966 13.8885 51.7732 12.7997C53.2497 11.696 54.95 11.1442 56.874 11.1442C57.3513 11.1442 57.8659 11.174 58.4177 11.2337C58.9695 11.2933 59.4543 11.3754 59.8719 11.4798V19.9364C59.4245 19.8022 58.8055 19.6829 58.015 19.5785C57.2245 19.4741 56.5012 19.4219 55.8449 19.4219C54.4429 19.4219 53.1901 19.7276 52.0864 20.3391C50.9976 20.9357 50.1325 21.771 49.4912 22.8448C48.8648 23.9187 48.5516 25.1566 48.5516 26.5586V46H39.021ZM84.8359 31.3686V11.6364H94.3665V46H85.2163V39.7582H84.8583C84.0827 41.7717 82.7926 43.3899 80.9879 44.6129C79.1982 45.8359 77.0131 46.4474 74.4329 46.4474C72.136 46.4474 70.1151 45.9254 68.37 44.8814C66.625 43.8374 65.2603 42.3533 64.2759 40.4293C63.3065 38.5053 62.8143 36.201 62.7994 33.5163V11.6364H72.3299V31.8161C72.3448 33.8445 72.8892 35.4478 73.9631 36.6261C75.0369 37.8043 76.4762 38.3935 78.2809 38.3935C79.4293 38.3935 80.5032 38.1325 81.5025 37.6104C82.5018 37.0735 83.3072 36.283 83.9187 35.239C84.5451 34.195 84.8509 32.9048 84.8359 31.3686ZM128.581 21.4354L119.856 21.9723C119.707 21.2266 119.386 20.5554 118.894 19.9588C118.402 19.3473 117.753 18.8626 116.948 18.5046C116.157 18.1317 115.21 17.9453 114.107 17.9453C112.63 17.9453 111.385 18.2585 110.37 18.8849C109.356 19.4964 108.849 20.3168 108.849 21.3459C108.849 22.1662 109.177 22.8597 109.834 23.4265C110.49 23.9933 111.616 24.4482 113.212 24.7912L119.431 26.044C122.772 26.7301 125.263 27.8338 126.903 29.3551C128.544 30.8764 129.364 32.875 129.364 35.3509C129.364 37.603 128.701 39.5792 127.373 41.2795C126.061 42.9798 124.256 44.3072 121.959 45.2617C119.677 46.2013 117.045 46.6712 114.062 46.6712C109.513 46.6712 105.889 45.7241 103.189 43.8299C100.504 41.9208 98.9308 39.3256 98.4685 36.0444L107.842 35.5522C108.126 36.9393 108.812 37.9982 109.901 38.729C110.989 39.445 112.384 39.8029 114.084 39.8029C115.755 39.8029 117.097 39.4822 118.111 38.8409C119.14 38.1847 119.662 37.342 119.677 36.3129C119.662 35.4478 119.297 34.7393 118.581 34.1875C117.865 33.6207 116.761 33.1882 115.27 32.8899L109.319 31.7042C105.963 31.033 103.465 29.8697 101.824 28.2141C100.199 26.5586 99.3857 24.4482 99.3857 21.8828C99.3857 19.6754 99.9823 17.7738 101.176 16.1779C102.384 14.582 104.076 13.3516 106.254 12.4865C108.446 11.6214 111.012 11.1889 113.95 11.1889C118.29 11.1889 121.706 12.1062 124.196 13.9407C126.702 15.7752 128.164 18.2734 128.581 21.4354ZM151.644 11.6364V18.7955H130.95V11.6364H151.644ZM135.648 3.40341H145.178V35.4403C145.178 36.3203 145.313 37.0064 145.581 37.4986C145.849 37.9759 146.222 38.3114 146.7 38.5053C147.192 38.6992 147.759 38.7962 148.4 38.7962C148.847 38.7962 149.295 38.7589 149.742 38.6843C150.19 38.5948 150.533 38.5277 150.771 38.483L152.27 45.5749C151.793 45.7241 151.122 45.8956 150.257 46.0895C149.392 46.2983 148.34 46.4251 147.102 46.4698C144.805 46.5593 142.792 46.2536 141.062 45.5526C139.347 44.8516 138.012 43.7628 137.057 42.2862C136.103 40.8097 135.633 38.9453 135.648 36.6932V3.40341ZM171.143 46.6712C167.609 46.6712 164.566 45.9553 162.016 44.5234C159.48 43.0767 157.526 41.0334 156.154 38.3935C154.782 35.7386 154.096 32.5991 154.096 28.9748C154.096 25.44 154.782 22.3377 156.154 19.668C157.526 16.9982 159.458 14.9176 161.949 13.4261C164.454 11.9347 167.392 11.1889 170.763 11.1889C173.03 11.1889 175.141 11.5543 177.094 12.2852C179.063 13.0011 180.778 14.0824 182.24 15.5291C183.717 16.9759 184.865 18.7955 185.685 20.9879C186.506 23.1655 186.916 25.7159 186.916 28.6392V31.2567H157.899V25.3505H177.945C177.945 23.9783 177.646 22.7628 177.05 21.7038C176.453 20.6449 175.625 19.8171 174.566 19.2205C173.522 18.609 172.307 18.3033 170.92 18.3033C169.473 18.3033 168.19 18.6388 167.072 19.31C165.968 19.9663 165.103 20.8537 164.477 21.9723C163.85 23.076 163.529 24.3065 163.515 25.6637V31.2791C163.515 32.9794 163.828 34.4485 164.454 35.6864C165.096 36.9244 165.998 37.8789 167.161 38.5501C168.325 39.2212 169.704 39.5568 171.3 39.5568C172.359 39.5568 173.328 39.4077 174.208 39.1094C175.088 38.8111 175.842 38.3636 176.468 37.767C177.094 37.1705 177.572 36.4396 177.9 35.5746L186.714 36.1562C186.267 38.2741 185.35 40.1236 183.963 41.7045C182.591 43.2706 180.816 44.4936 178.638 45.3736C176.475 46.2386 173.977 46.6712 171.143 46.6712ZM203.798 46.5593C201.188 46.5593 198.824 45.8881 196.706 44.5458C194.603 43.1886 192.933 41.1974 191.695 38.5724C190.472 35.9325 189.86 32.696 189.86 28.8629C189.86 24.9254 190.494 21.6516 191.762 19.0415C193.029 16.4165 194.715 14.4553 196.818 13.1577C198.936 11.8452 201.255 11.1889 203.776 11.1889C205.7 11.1889 207.303 11.517 208.586 12.1733C209.883 12.8146 210.927 13.62 211.718 14.5895C212.523 15.544 213.135 16.4837 213.552 17.4084H213.843V0.181817H223.351V46H213.955V40.4964H213.552C213.105 41.451 212.471 42.3981 211.651 43.3377C210.845 44.2624 209.794 45.0305 208.496 45.642C207.213 46.2536 205.647 46.5593 203.798 46.5593ZM206.818 38.9751C208.354 38.9751 209.652 38.5575 210.711 37.7223C211.785 36.8722 212.605 35.6864 213.172 34.1651C213.754 32.6438 214.044 30.8615 214.044 28.8182C214.044 26.7749 213.761 25 213.194 23.4936C212.627 21.9872 211.807 20.8239 210.733 20.0036C209.659 19.1832 208.354 18.7731 206.818 18.7731C205.252 18.7731 203.932 19.1982 202.858 20.0483C201.784 20.8984 200.972 22.0767 200.42 23.5831C199.868 25.0895 199.592 26.8345 199.592 28.8182C199.592 30.8168 199.868 32.5842 200.42 34.1204C200.987 35.6417 201.799 36.8349 202.858 37.6999C203.932 38.5501 205.252 38.9751 206.818 38.9751ZM241.947 46V0.181817H251.478V17.4084H251.768C252.186 16.4837 252.79 15.544 253.581 14.5895C254.386 13.62 255.43 12.8146 256.713 12.1733C258.01 11.517 259.621 11.1889 261.545 11.1889C264.051 11.1889 266.363 11.8452 268.48 13.1577C270.598 14.4553 272.291 16.4165 273.559 19.0415C274.827 21.6516 275.461 24.9254 275.461 28.8629C275.461 32.696 274.842 35.9325 273.604 38.5724C272.381 41.1974 270.71 43.1886 268.592 44.5458C266.489 45.8881 264.133 46.5593 261.523 46.5593C259.673 46.5593 258.1 46.2536 256.802 45.642C255.52 45.0305 254.468 44.2624 253.648 43.3377C252.827 42.3981 252.201 41.451 251.768 40.4964H251.343V46H241.947ZM251.276 28.8182C251.276 30.8615 251.56 32.6438 252.126 34.1651C252.693 35.6864 253.513 36.8722 254.587 37.7223C255.661 38.5575 256.966 38.9751 258.502 38.9751C260.054 38.9751 261.366 38.5501 262.44 37.6999C263.514 36.8349 264.327 35.6417 264.879 34.1204C265.445 32.5842 265.729 30.8168 265.729 28.8182C265.729 26.8345 265.453 25.0895 264.901 23.5831C264.349 22.0767 263.536 20.8984 262.462 20.0483C261.388 19.1982 260.069 18.7731 258.502 18.7731C256.951 18.7731 255.639 19.1832 254.565 20.0036C253.506 20.8239 252.693 21.9872 252.126 23.4936C251.56 25 251.276 26.7749 251.276 28.8182ZM284.596 58.8864C283.388 58.8864 282.255 58.7894 281.196 58.5955C280.152 58.4165 279.287 58.1854 278.601 57.902L280.748 50.7876C281.867 51.1307 282.874 51.3171 283.769 51.3469C284.678 51.3768 285.461 51.168 286.118 50.7205C286.789 50.2731 287.333 49.5124 287.751 48.4386L288.31 46.9844L275.983 11.6364H286.006L293.12 36.8722H293.478L300.66 11.6364H310.749L297.393 49.7138C296.752 51.5632 295.879 53.174 294.776 54.5462C293.687 55.9332 292.307 56.9996 290.637 57.7454C288.966 58.506 286.953 58.8864 284.596 58.8864ZM344.486 11.6364V18.7955H323.791V11.6364H344.486ZM328.49 3.40341H338.02V35.4403C338.02 36.3203 338.154 37.0064 338.423 37.4986C338.691 37.9759 339.064 38.3114 339.541 38.5053C340.034 38.6992 340.6 38.7962 341.242 38.7962C341.689 38.7962 342.137 38.7589 342.584 38.6843C343.031 38.5948 343.374 38.5277 343.613 38.483L345.112 45.5749C344.635 45.7241 343.964 45.8956 343.099 46.0895C342.233 46.2983 341.182 46.4251 339.944 46.4698C337.647 46.5593 335.634 46.2536 333.904 45.5526C332.188 44.8516 330.854 43.7628 329.899 42.2862C328.944 40.8097 328.475 38.9453 328.49 36.6932V3.40341ZM358.963 26.1335V46H349.432V0.181817H358.694V17.6992H359.097C359.873 15.6708 361.125 14.0824 362.855 12.9339C364.586 11.7706 366.756 11.1889 369.366 11.1889C371.752 11.1889 373.833 11.7109 375.608 12.755C377.397 13.7841 378.784 15.2681 379.769 17.207C380.768 19.131 381.26 21.4354 381.245 24.12V46H371.715V25.8203C371.73 23.7024 371.193 22.0543 370.104 20.8761C369.03 19.6978 367.524 19.1087 365.585 19.1087C364.287 19.1087 363.139 19.3846 362.14 19.9364C361.155 20.4883 360.38 21.2937 359.813 22.3526C359.261 23.3967 358.978 24.657 358.963 26.1335ZM402.272 46.6712C398.797 46.6712 395.791 45.9329 393.256 44.4563C390.735 42.9648 388.789 40.8917 387.417 38.2369C386.045 35.5671 385.359 32.4723 385.359 28.9524C385.359 25.4027 386.045 22.3004 387.417 19.6456C388.789 16.9759 390.735 14.9027 393.256 13.4261C395.791 11.9347 398.797 11.1889 402.272 11.1889C405.747 11.1889 408.745 11.9347 411.266 13.4261C413.801 14.9027 415.755 16.9759 417.127 19.6456C418.499 22.3004 419.185 25.4027 419.185 28.9524C419.185 32.4723 418.499 35.5671 417.127 38.2369C415.755 40.8917 413.801 42.9648 411.266 44.4563C408.745 45.9329 405.747 46.6712 402.272 46.6712ZM402.317 39.2884C403.898 39.2884 405.218 38.8409 406.277 37.946C407.335 37.0362 408.133 35.7983 408.67 34.2322C409.222 32.6662 409.498 30.8839 409.498 28.8853C409.498 26.8867 409.222 25.1044 408.67 23.5384C408.133 21.9723 407.335 20.7344 406.277 19.8246C405.218 18.9148 403.898 18.4599 402.317 18.4599C400.721 18.4599 399.378 18.9148 398.29 19.8246C397.216 20.7344 396.403 21.9723 395.851 23.5384C395.314 25.1044 395.046 26.8867 395.046 28.8853C395.046 30.8839 395.314 32.6662 395.851 34.2322C396.403 35.7983 397.216 37.0362 398.29 37.946C399.378 38.8409 400.721 39.2884 402.317 39.2884ZM445.419 31.3686V11.6364H454.949V46H445.799V39.7582H445.441C444.666 41.7717 443.376 43.3899 441.571 44.6129C439.781 45.8359 437.596 46.4474 435.016 46.4474C432.719 46.4474 430.698 45.9254 428.953 44.8814C427.208 43.8374 425.843 42.3533 424.859 40.4293C423.889 38.5053 423.397 36.201 423.382 33.5163V11.6364H432.913V31.8161C432.928 33.8445 433.472 35.4478 434.546 36.6261C435.62 37.8043 437.059 38.3935 438.864 38.3935C440.012 38.3935 441.086 38.1325 442.085 37.6104C443.085 37.0735 443.89 36.283 444.502 35.239C445.128 34.195 445.434 32.9048 445.419 31.3686ZM489.164 21.4354L480.439 21.9723C480.29 21.2266 479.969 20.5554 479.477 19.9588C478.985 19.3473 478.336 18.8626 477.531 18.5046C476.74 18.1317 475.793 17.9453 474.69 17.9453C473.213 17.9453 471.968 18.2585 470.953 18.8849C469.939 19.4964 469.432 20.3168 469.432 21.3459C469.432 22.1662 469.76 22.8597 470.417 23.4265C471.073 23.9933 472.199 24.4482 473.795 24.7912L480.014 26.044C483.355 26.7301 485.846 27.8338 487.487 29.3551C489.127 30.8764 489.947 32.875 489.947 35.3509C489.947 37.603 489.284 39.5792 487.956 41.2795C486.644 42.9798 484.839 44.3072 482.542 45.2617C480.26 46.2013 477.628 46.6712 474.645 46.6712C470.096 46.6712 466.472 45.7241 463.772 43.8299C461.087 41.9208 459.514 39.3256 459.051 36.0444L468.425 35.5522C468.709 36.9393 469.395 37.9982 470.484 38.729C471.572 39.445 472.967 39.8029 474.667 39.8029C476.338 39.8029 477.68 39.4822 478.694 38.8409C479.723 38.1847 480.245 37.342 480.26 36.3129C480.245 35.4478 479.88 34.7393 479.164 34.1875C478.448 33.6207 477.344 33.1882 475.853 32.8899L469.902 31.7042C466.546 31.033 464.048 29.8697 462.407 28.2141C460.782 26.5586 459.969 24.4482 459.969 21.8828C459.969 19.6754 460.565 17.7738 461.759 16.1779C462.967 14.582 464.659 13.3516 466.837 12.4865C469.029 11.6214 471.595 11.1889 474.533 11.1889C478.873 11.1889 482.289 12.1062 484.779 13.9407C487.285 15.7752 488.747 18.2734 489.164 21.4354ZM503.748 46.6488C501.555 46.6488 499.601 46.2685 497.886 45.5078C496.171 44.7322 494.814 43.5913 493.815 42.0849C492.83 40.5636 492.338 38.6694 492.338 36.4023C492.338 34.4933 492.688 32.8899 493.389 31.5923C494.09 30.2947 495.045 29.2507 496.253 28.4602C497.461 27.6697 498.833 27.0732 500.37 26.6705C501.921 26.2678 503.546 25.9844 505.247 25.8203C507.245 25.6115 508.856 25.4176 510.079 25.2386C511.302 25.0447 512.19 24.7614 512.741 24.3885C513.293 24.0156 513.569 23.4638 513.569 22.733V22.5987C513.569 21.1818 513.122 20.0856 512.227 19.31C511.347 18.5344 510.094 18.1467 508.468 18.1467C506.753 18.1467 505.388 18.527 504.374 19.2876C503.36 20.0334 502.689 20.973 502.361 22.1065L493.546 21.3906C493.994 19.3026 494.873 17.4979 496.186 15.9766C497.498 14.4403 499.191 13.2621 501.264 12.4418C503.353 11.6065 505.769 11.1889 508.513 11.1889C510.422 11.1889 512.249 11.4126 513.994 11.8601C515.754 12.3075 517.313 13.0011 518.67 13.9407C520.042 14.8803 521.123 16.0884 521.914 17.565C522.704 19.0266 523.1 20.7791 523.1 22.8224V46H514.061V41.2347H513.793C513.241 42.3086 512.503 43.2557 511.578 44.076C510.653 44.8814 509.542 45.5153 508.245 45.9776C506.947 46.4251 505.448 46.6488 503.748 46.6488ZM506.477 40.0714C507.879 40.0714 509.117 39.7955 510.191 39.2436C511.265 38.6768 512.108 37.9162 512.719 36.9616C513.331 36.0071 513.636 34.9258 513.636 33.7177V30.071C513.338 30.2649 512.928 30.4439 512.406 30.608C511.899 30.7571 511.324 30.8988 510.683 31.033C510.042 31.1523 509.4 31.2642 508.759 31.3686C508.118 31.4581 507.536 31.5401 507.014 31.6147C505.896 31.7788 504.919 32.0398 504.083 32.3977C503.248 32.7557 502.599 33.2404 502.137 33.8519C501.675 34.4485 501.443 35.1942 501.443 36.0891C501.443 37.3867 501.913 38.3786 502.853 39.0646C503.807 39.7358 505.016 40.0714 506.477 40.0714ZM538.024 26.1335V46H528.494V11.6364H537.577V17.6992H537.979C538.74 15.7006 540.015 14.1197 541.805 12.9563C543.595 11.7781 545.765 11.1889 548.315 11.1889C550.702 11.1889 552.782 11.7109 554.557 12.755C556.332 13.799 557.712 15.2905 558.696 17.2294C559.68 19.1534 560.173 21.4503 560.173 24.12V46H550.642V25.8203C550.657 23.7173 550.12 22.0767 549.031 20.8984C547.943 19.7053 546.444 19.1087 544.535 19.1087C543.252 19.1087 542.118 19.3846 541.134 19.9364C540.165 20.4883 539.404 21.2937 538.852 22.3526C538.315 23.3967 538.039 24.657 538.024 26.1335ZM578.347 46.5593C575.737 46.5593 573.373 45.8881 571.255 44.5458C569.152 43.1886 567.481 41.1974 566.243 38.5724C565.02 35.9325 564.409 32.696 564.409 28.8629C564.409 24.9254 565.043 21.6516 566.311 19.0415C567.578 16.4165 569.264 14.4553 571.367 13.1577C573.485 11.8452 575.804 11.1889 578.324 11.1889C580.248 11.1889 581.852 11.517 583.134 12.1733C584.432 12.8146 585.476 13.62 586.267 14.5895C587.072 15.544 587.683 16.4837 588.101 17.4084H588.392V0.181817H597.9V46H588.504V40.4964H588.101C587.654 41.451 587.02 42.3981 586.199 43.3377C585.394 44.2624 584.343 45.0305 583.045 45.642C581.762 46.2536 580.196 46.5593 578.347 46.5593ZM581.367 38.9751C582.903 38.9751 584.201 38.5575 585.26 37.7223C586.334 36.8722 587.154 35.6864 587.721 34.1651C588.302 32.6438 588.593 30.8615 588.593 28.8182C588.593 26.7749 588.31 25 587.743 23.4936C587.176 21.9872 586.356 20.8239 585.282 20.0036C584.208 19.1832 582.903 18.7731 581.367 18.7731C579.801 18.7731 578.481 19.1982 577.407 20.0483C576.333 20.8984 575.52 22.0767 574.969 23.5831C574.417 25.0895 574.141 26.8345 574.141 28.8182C574.141 30.8168 574.417 32.5842 574.969 34.1204C575.535 35.6417 576.348 36.8349 577.407 37.6999C578.481 38.5501 579.801 38.9751 581.367 38.9751ZM632.328 21.4354L623.602 21.9723C623.453 21.2266 623.133 20.5554 622.64 19.9588C622.148 19.3473 621.499 18.8626 620.694 18.5046C619.903 18.1317 618.956 17.9453 617.853 17.9453C616.376 17.9453 615.131 18.2585 614.117 18.8849C613.102 19.4964 612.595 20.3168 612.595 21.3459C612.595 22.1662 612.923 22.8597 613.58 23.4265C614.236 23.9933 615.362 24.4482 616.958 24.7912L623.177 26.044C626.518 26.7301 629.009 27.8338 630.65 29.3551C632.29 30.8764 633.111 32.875 633.111 35.3509C633.111 37.603 632.447 39.5792 631.119 41.2795C629.807 42.9798 628.002 44.3072 625.705 45.2617C623.423 46.2013 620.791 46.6712 617.808 46.6712C613.259 46.6712 609.635 45.7241 606.935 43.8299C604.25 41.9208 602.677 39.3256 602.215 36.0444L611.589 35.5522C611.872 36.9393 612.558 37.9982 613.647 38.729C614.736 39.445 616.13 39.8029 617.83 39.8029C619.501 39.8029 620.843 39.4822 621.857 38.8409C622.886 38.1847 623.408 37.342 623.423 36.3129C623.408 35.4478 623.043 34.7393 622.327 34.1875C621.611 33.6207 620.508 33.1882 619.016 32.8899L613.065 31.7042C609.709 31.033 607.211 29.8697 605.57 28.2141C603.945 26.5586 603.132 24.4482 603.132 21.8828C603.132 19.6754 603.728 17.7738 604.922 16.1779C606.13 14.582 607.823 13.3516 610 12.4865C612.193 11.6214 614.758 11.1889 617.696 11.1889C622.036 11.1889 625.452 12.1062 627.943 13.9407C630.448 15.7752 631.91 18.2734 632.328 21.4354ZM112.302 122.671C108.827 122.671 105.822 121.933 103.286 120.456C100.766 118.965 98.8192 116.892 97.4471 114.237C96.0749 111.567 95.3888 108.472 95.3888 104.952C95.3888 101.403 96.0749 98.3004 97.4471 95.6456C98.8192 92.9759 100.766 90.9027 103.286 89.4261C105.822 87.9347 108.827 87.1889 112.302 87.1889C115.777 87.1889 118.775 87.9347 121.296 89.4261C123.831 90.9027 125.785 92.9759 127.157 95.6456C128.529 98.3004 129.216 101.403 129.216 104.952C129.216 108.472 128.529 111.567 127.157 114.237C125.785 116.892 123.831 118.965 121.296 120.456C118.775 121.933 115.777 122.671 112.302 122.671ZM112.347 115.288C113.928 115.288 115.248 114.841 116.307 113.946C117.366 113.036 118.164 111.798 118.701 110.232C119.252 108.666 119.528 106.884 119.528 104.885C119.528 102.887 119.252 101.104 118.701 99.5384C118.164 97.9723 117.366 96.7344 116.307 95.8246C115.248 94.9148 113.928 94.4599 112.347 94.4599C110.751 94.4599 109.409 94.9148 108.32 95.8246C107.246 96.7344 106.433 97.9723 105.881 99.5384C105.344 101.104 105.076 102.887 105.076 104.885C105.076 106.884 105.344 108.666 105.881 110.232C106.433 111.798 107.246 113.036 108.32 113.946C109.409 114.841 110.751 115.288 112.347 115.288ZM151.892 87.6364V94.7955H130.683V87.6364H151.892ZM135.538 122V85.1531C135.538 82.6623 136.023 80.5966 136.992 78.956C137.977 77.3153 139.319 76.0849 141.019 75.2646C142.719 74.4442 144.651 74.0341 146.814 74.0341C148.275 74.0341 149.61 74.1459 150.818 74.3697C152.041 74.5934 152.951 74.7947 153.548 74.9737L151.847 82.1328C151.474 82.0135 151.012 81.9016 150.46 81.7972C149.923 81.6928 149.371 81.6406 148.805 81.6406C147.403 81.6406 146.426 81.9688 145.874 82.625C145.322 83.2663 145.046 84.1687 145.046 85.332V122H135.538ZM186.574 87.6364V94.7955H165.879V87.6364H186.574ZM170.577 79.4034H180.108V111.44C180.108 112.32 180.242 113.006 180.511 113.499C180.779 113.976 181.152 114.311 181.629 114.505C182.121 114.699 182.688 114.796 183.33 114.796C183.777 114.796 184.224 114.759 184.672 114.684C185.119 114.595 185.462 114.528 185.701 114.483L187.2 121.575C186.723 121.724 186.051 121.896 185.186 122.089C184.321 122.298 183.27 122.425 182.032 122.47C179.735 122.559 177.722 122.254 175.991 121.553C174.276 120.852 172.941 119.763 171.987 118.286C171.032 116.81 170.563 114.945 170.577 112.693V79.4034ZM205.939 122.671C202.464 122.671 199.458 121.933 196.923 120.456C194.402 118.965 192.456 116.892 191.084 114.237C189.712 111.567 189.026 108.472 189.026 104.952C189.026 101.403 189.712 98.3004 191.084 95.6456C192.456 92.9759 194.402 90.9027 196.923 89.4261C199.458 87.9347 202.464 87.1889 205.939 87.1889C209.414 87.1889 212.412 87.9347 214.933 89.4261C217.468 90.9027 219.422 92.9759 220.794 95.6456C222.166 98.3004 222.852 101.403 222.852 104.952C222.852 108.472 222.166 111.567 220.794 114.237C219.422 116.892 217.468 118.965 214.933 120.456C212.412 121.933 209.414 122.671 205.939 122.671ZM205.984 115.288C207.565 115.288 208.885 114.841 209.944 113.946C211.002 113.036 211.8 111.798 212.337 110.232C212.889 108.666 213.165 106.884 213.165 104.885C213.165 102.887 212.889 101.104 212.337 99.5384C211.8 97.9723 211.002 96.7344 209.944 95.8246C208.885 94.9148 207.565 94.4599 205.984 94.4599C204.388 94.4599 203.045 94.9148 201.957 95.8246C200.883 96.7344 200.07 97.9723 199.518 99.5384C198.981 101.104 198.713 102.887 198.713 104.885C198.713 106.884 198.981 108.666 199.518 110.232C200.07 111.798 200.883 113.036 201.957 113.946C203.045 114.841 204.388 115.288 205.984 115.288ZM227.049 134.886V87.6364H236.446V93.4084H236.871C237.288 92.4837 237.892 91.544 238.683 90.5895C239.488 89.62 240.532 88.8146 241.815 88.1733C243.113 87.517 244.723 87.1889 246.647 87.1889C249.153 87.1889 251.465 87.8452 253.583 89.1577C255.701 90.4553 257.393 92.4165 258.661 95.0415C259.929 97.6516 260.563 100.925 260.563 104.863C260.563 108.696 259.944 111.933 258.706 114.572C257.483 117.197 255.813 119.189 253.695 120.546C251.592 121.888 249.235 122.559 246.625 122.559C244.776 122.559 243.202 122.254 241.904 121.642C240.622 121.031 239.57 120.262 238.75 119.338C237.93 118.398 237.303 117.451 236.871 116.496H236.58V134.886H227.049ZM236.379 104.818C236.379 106.862 236.662 108.644 237.229 110.165C237.795 111.686 238.616 112.872 239.69 113.722C240.763 114.558 242.069 114.975 243.605 114.975C245.156 114.975 246.468 114.55 247.542 113.7C248.616 112.835 249.429 111.642 249.981 110.12C250.548 108.584 250.831 106.817 250.831 104.818C250.831 102.835 250.555 101.089 250.003 99.5831C249.451 98.0767 248.638 96.8984 247.565 96.0483C246.491 95.1982 245.171 94.7731 243.605 94.7731C242.054 94.7731 240.741 95.1832 239.667 96.0036C238.608 96.8239 237.795 97.9872 237.229 99.4936C236.662 101 236.379 102.775 236.379 104.818ZM293.919 122H277.677V76.1818H294.053C298.662 76.1818 302.629 77.0991 305.955 78.9336C309.281 80.7532 311.839 83.3707 313.629 86.7862C315.433 90.2017 316.336 94.2884 316.336 99.0462C316.336 103.819 315.433 107.92 313.629 111.351C311.839 114.781 309.266 117.414 305.91 119.248C302.569 121.083 298.572 122 293.919 122ZM287.364 113.7H293.516C296.38 113.7 298.788 113.193 300.742 112.179C302.711 111.15 304.188 109.561 305.172 107.413C306.171 105.251 306.671 102.462 306.671 99.0462C306.671 95.6605 306.171 92.8938 305.172 90.7461C304.188 88.5984 302.718 87.0174 300.765 86.0032C298.811 84.989 296.402 84.4819 293.538 84.4819H287.364V113.7ZM317.675 84.1687V76.1818H355.305V84.1687H341.277V122H331.702V84.1687H317.675ZM397.836 92.2227H388.037C387.858 90.9549 387.493 89.8288 386.941 88.8445C386.389 87.8452 385.681 86.995 384.816 86.294C383.951 85.593 382.952 85.0561 381.818 84.6832C380.699 84.3104 379.484 84.1239 378.171 84.1239C375.8 84.1239 373.734 84.7131 371.974 85.8913C370.214 87.0547 368.85 88.755 367.88 90.9922C366.911 93.2145 366.426 95.9141 366.426 99.0909C366.426 102.357 366.911 105.102 367.88 107.324C368.865 109.546 370.237 111.224 371.997 112.358C373.757 113.491 375.792 114.058 378.104 114.058C379.402 114.058 380.602 113.886 381.706 113.543C382.825 113.2 383.817 112.701 384.682 112.044C385.547 111.373 386.263 110.56 386.829 109.606C387.411 108.651 387.814 107.562 388.037 106.339L397.836 106.384C397.583 108.487 396.949 110.516 395.935 112.469C394.936 114.408 393.586 116.146 391.885 117.682C390.2 119.203 388.187 120.412 385.845 121.306C383.518 122.186 380.886 122.626 377.948 122.626C373.861 122.626 370.207 121.702 366.985 119.852C363.779 118.003 361.243 115.326 359.379 111.821C357.529 108.316 356.605 104.072 356.605 99.0909C356.605 94.0945 357.544 89.8438 359.423 86.3388C361.303 82.8338 363.853 80.1641 367.075 78.3295C370.296 76.4801 373.921 75.5554 377.948 75.5554C380.602 75.5554 383.063 75.9283 385.33 76.674C387.612 77.4197 389.633 78.5085 391.393 79.9403C393.153 81.3572 394.585 83.0948 395.689 85.1531C396.807 87.2113 397.523 89.5678 397.836 92.2227Z" fill="#2E2F35"/>
<path d="M412.981 101.451V101.328C412.981 101 413.084 100.672 413.289 100.344C413.535 99.9746 413.781 99.667 414.027 99.4209V96.2832C414.027 92.8789 413.966 89.5566 413.843 86.3164C413.761 83.0762 413.556 79.7334 413.228 76.2881C413.228 75.7549 413.412 75.3652 413.781 75.1191C414.15 74.832 414.54 74.6885 414.95 74.6885C416.099 74.4834 416.96 74.75 417.534 75.4883C418.149 76.2266 418.58 77.2314 418.826 78.5029C419.072 79.7744 419.195 81.21 419.195 82.8096C419.195 84.3682 419.154 85.8857 419.072 87.3623C419.031 88.8389 419.011 90.1514 419.011 91.2998C419.011 92.4482 419.154 93.2275 419.441 93.6377C419.975 93.4326 420.241 93.3506 420.241 93.3916C420.282 93.3916 420.282 93.4121 420.241 93.4531C420.241 93.4531 420.282 93.4121 420.364 93.3301C420.487 93.207 420.877 92.8994 421.533 92.4072C422.436 91.71 423.481 91.2793 424.671 91.1152C425.901 90.9102 427.05 90.8076 428.116 90.8076C430.618 91.1768 432.361 91.9561 433.346 93.1455C434.33 94.2939 434.761 95.7295 434.638 97.4521C434.515 99.1338 433.92 101.021 432.854 103.112C431.828 105.163 430.536 107.296 428.978 109.511C427.419 111.685 425.696 113.858 423.81 116.032C421.923 118.165 420.098 120.175 418.334 122.062C417.965 122.062 417.534 122 417.042 121.877C416.591 121.754 416.16 121.569 415.75 121.323C415.34 121.077 414.991 120.77 414.704 120.4C414.417 120.031 414.273 119.601 414.273 119.108V103.051L412.981 101.451ZM419.441 106.188C419.441 106.312 419.441 106.599 419.441 107.05C419.482 107.501 419.523 107.993 419.564 108.526C419.605 109.019 419.626 109.49 419.626 109.941C419.667 110.393 419.688 110.68 419.688 110.803C419.688 110.926 419.688 111.151 419.688 111.479C419.688 111.767 419.688 112.095 419.688 112.464C419.729 112.792 419.749 113.12 419.749 113.448C419.749 113.735 419.749 113.94 419.749 114.063C420.2 113.981 420.836 113.407 421.656 112.341C422.477 111.274 423.317 110.044 424.179 108.649C425.04 107.214 425.84 105.778 426.578 104.343C427.316 102.907 427.87 101.779 428.239 100.959C428.403 100.549 428.567 100.057 428.731 99.4824C428.896 98.9082 428.998 98.334 429.039 97.7598C429.121 97.1445 429.08 96.5908 428.916 96.0986C428.793 95.6064 428.506 95.2168 428.055 94.9297C427.316 94.9297 426.517 95.1143 425.655 95.4834C424.835 95.8525 424.015 96.3242 423.194 96.8984C422.415 97.4727 421.697 98.1084 421.041 98.8057C420.426 99.4619 419.975 100.098 419.688 100.713C419.646 100.918 419.605 101.287 419.564 101.82C419.564 102.312 419.544 102.846 419.503 103.42C419.503 103.994 419.482 104.548 419.441 105.081C419.441 105.614 419.441 105.983 419.441 106.188ZM437.19 119.354C437.108 117.878 436.965 115.909 436.76 113.448C436.596 110.946 436.391 108.362 436.145 105.696C435.939 103.03 435.714 100.508 435.468 98.1289C435.222 95.75 435.017 93.9043 434.853 92.5918C434.853 92.0586 435.099 91.71 435.591 91.5459C436.083 91.3818 436.555 91.2998 437.006 91.2998C437.58 91.2998 438.175 91.4639 438.79 91.792C439.446 92.1201 439.856 92.5713 440.021 93.1455C440.021 93.3096 440.041 93.6172 440.082 94.0684C440.123 94.4785 440.144 94.9092 440.144 95.3604C440.185 95.8115 440.226 96.2627 440.267 96.7139C440.308 97.124 440.328 97.4111 440.328 97.5752C440.328 97.8213 440.328 98.0059 440.328 98.1289C440.328 98.252 440.328 98.375 440.328 98.498C440.328 98.5801 440.349 98.6826 440.39 98.8057C440.431 98.9287 440.492 99.1338 440.574 99.4209C440.656 99.3389 440.738 99.2363 440.82 99.1133C440.943 98.9902 441.025 98.9082 441.066 98.8672C441.723 97.9238 442.358 97.1035 442.974 96.4062C443.589 95.668 444.225 94.9912 444.881 94.376C445.537 93.7197 446.255 93.043 447.034 92.3457C447.854 91.6074 448.798 90.7666 449.864 89.8232C450.11 89.6182 450.295 89.4746 450.418 89.3926C450.541 89.2695 450.644 89.1875 450.726 89.1465C450.849 89.0645 450.972 89.0234 451.095 89.0234C451.218 88.9824 451.382 88.9619 451.587 88.9619C452.284 88.9619 452.981 89.208 453.679 89.7002C454.417 90.1514 454.786 90.7871 454.786 91.6074C454.786 91.8945 454.684 92.2021 454.479 92.5303C454.273 92.8174 454.027 93.1045 453.74 93.3916C453.453 93.6377 453.146 93.8633 452.817 94.0684C452.53 94.2734 452.264 94.417 452.018 94.499C450.951 95.4424 449.823 96.5293 448.634 97.7598C447.444 98.9492 446.337 100.241 445.312 101.636C444.286 103.03 443.445 104.486 442.789 106.004C442.133 107.521 441.805 109.039 441.805 110.557C441.805 111.951 441.907 113.325 442.112 114.679C442.317 116.032 442.42 117.406 442.42 118.801V120.954C442.092 121.282 441.805 121.549 441.559 121.754C441.312 121.959 440.964 122.062 440.513 122.062C439.815 122.062 439.139 121.774 438.482 121.2C437.826 120.585 437.396 119.97 437.19 119.354ZM468.721 104.835C468.352 105.491 467.921 106.291 467.429 107.234C466.978 108.137 466.485 109.121 465.952 110.188C465.419 111.213 464.824 112.259 464.168 113.325C463.553 114.351 462.896 115.294 462.199 116.155C461.543 117.017 460.846 117.755 460.107 118.37C459.369 118.944 458.61 119.293 457.831 119.416C457.503 119.416 457.134 119.396 456.724 119.354C456.313 119.272 455.903 119.17 455.493 119.047C455.083 118.883 454.734 118.678 454.447 118.432C454.201 118.145 454.078 117.775 454.078 117.324C454.119 113.141 454.427 109.347 455.001 105.942C455.575 102.497 456.478 99.4824 457.708 96.8984C458.938 94.2734 460.518 92.0996 462.445 90.377C464.373 88.6543 466.711 87.4238 469.459 86.6855C469.541 86.6855 469.685 86.6855 469.89 86.6855C470.136 86.6445 470.3 86.624 470.382 86.624C471.612 86.583 472.494 87.1572 473.027 88.3467C473.602 89.4951 474.012 91.3408 474.258 93.8838C474.545 96.3857 474.729 99.626 474.812 103.604C474.935 107.542 475.16 112.279 475.488 117.816C475.611 118.268 475.673 118.657 475.673 118.985C475.714 119.313 475.734 119.703 475.734 120.154C475.734 120.77 475.55 121.241 475.181 121.569C474.812 121.856 474.34 122 473.766 122C472.576 122 471.735 121.672 471.243 121.016C470.751 120.359 470.423 119.478 470.259 118.37C470.259 118.329 470.218 118.001 470.136 117.386C470.095 116.771 470.013 116.073 469.89 115.294C469.808 114.474 469.726 113.653 469.644 112.833C469.562 112.013 469.5 111.336 469.459 110.803V110.557C469.377 110.146 469.315 109.634 469.274 109.019C469.274 108.403 469.233 107.809 469.151 107.234C469.069 106.537 469.008 105.84 468.967 105.143L468.721 104.835ZM467.367 92.6533C466.26 93.4736 465.173 94.5811 464.106 95.9756C463.04 97.3701 462.281 98.7236 461.83 100.036C461.625 100.651 461.399 101.492 461.153 102.559C460.907 103.625 460.682 104.691 460.477 105.758C460.312 106.783 460.169 107.747 460.046 108.649C459.923 109.511 459.861 110.064 459.861 110.311C459.902 110.311 459.943 110.27 459.984 110.188C460.066 110.105 460.128 110.044 460.169 110.003C462.712 107.542 464.496 104.896 465.521 102.066C466.588 99.1953 467.203 96.0576 467.367 92.6533ZM494.468 119.908C493.894 119.088 493.401 117.96 492.991 116.524C492.622 115.048 492.253 113.51 491.884 111.91C491.556 110.27 491.248 108.69 490.961 107.173C490.674 105.614 490.366 104.384 490.038 103.481C489.751 102.538 489.423 102.005 489.054 101.882C488.685 101.759 488.254 102.312 487.762 103.543L482.409 120.031C482.204 120.605 481.958 121.016 481.671 121.262C481.384 121.467 480.912 121.569 480.256 121.569C479.928 121.569 479.579 121.528 479.21 121.446C478.841 121.323 478.492 121.159 478.164 120.954C477.836 120.749 477.549 120.503 477.303 120.216C477.098 119.929 476.975 119.601 476.934 119.231C477.057 118.739 477.159 117.837 477.241 116.524C477.364 115.212 477.446 113.694 477.487 111.972C477.528 110.249 477.549 108.444 477.549 106.558C477.59 104.63 477.59 102.846 477.549 101.205C477.549 99.5234 477.528 98.0879 477.487 96.8984C477.446 95.668 477.405 94.8682 477.364 94.499C477.364 94.0889 477.364 93.6787 477.364 93.2686C477.405 92.8174 477.467 92.4072 477.549 92.0381C477.672 91.6689 477.856 91.3818 478.103 91.1768C478.39 90.9307 478.82 90.8076 479.395 90.8076C480.174 90.8076 480.892 91.1357 481.548 91.792C482.245 92.4482 482.594 93.1455 482.594 93.8838C482.594 94.9502 482.532 96.0166 482.409 97.083C482.327 98.1084 482.286 99.1543 482.286 100.221C482.286 100.877 482.286 101.431 482.286 101.882C482.286 102.333 482.368 102.887 482.532 103.543C482.655 103.215 482.86 102.641 483.147 101.82C483.435 101 483.742 100.139 484.07 99.2363C484.439 98.334 484.768 97.4932 485.055 96.7139C485.342 95.8936 485.547 95.3193 485.67 94.9912C485.957 94.1709 486.388 93.3916 486.962 92.6533C487.536 91.874 488.295 91.4434 489.238 91.3613C489.854 91.3203 490.407 91.4844 490.899 91.8535C491.433 92.2227 491.884 92.7148 492.253 93.3301C492.622 93.9043 492.93 94.5195 493.176 95.1758C493.422 95.791 493.606 96.3242 493.729 96.7754L497.052 112.095L499.636 119.108C499.677 119.149 499.697 119.272 499.697 119.478C499.697 119.642 499.697 119.765 499.697 119.847C499.697 120.339 499.574 120.831 499.328 121.323C499.123 121.774 498.733 122 498.159 122C497.462 122 496.744 121.815 496.006 121.446C495.268 121.036 494.755 120.523 494.468 119.908ZM515.847 112.279C515.806 112.279 515.519 112.73 514.985 113.633C514.493 114.535 513.816 115.52 512.955 116.586C512.094 117.652 511.068 118.637 509.879 119.539C508.73 120.441 507.5 120.893 506.188 120.893C504.383 120.893 502.865 120.339 501.635 119.231C500.445 118.124 499.851 116.606 499.851 114.679C499.769 113.694 499.892 112.525 500.22 111.172C500.589 109.818 501.102 108.424 501.758 106.988C502.455 105.512 503.275 104.097 504.219 102.743C505.203 101.349 506.249 100.159 507.356 99.1748C508.464 98.1494 509.612 97.3906 510.802 96.8984C512.032 96.4062 513.263 96.3242 514.493 96.6523V95.791C514.493 94.7246 514.452 93.6377 514.37 92.5303C514.329 91.3818 514.268 90.0898 514.186 88.6543C514.145 87.1777 514.083 85.4961 514.001 83.6094C513.96 81.6816 513.939 79.3848 513.939 76.7188C514.062 76.2676 514.268 75.9805 514.555 75.8574C514.883 75.6934 515.231 75.6113 515.601 75.6113C516.544 75.6113 517.282 75.9189 517.815 76.5342C518.39 77.1494 518.738 77.9082 518.861 78.8105C518.779 80.2051 518.738 81.6406 518.738 83.1172C518.779 84.5527 518.861 86.1934 518.984 88.0391C519.107 89.8848 519.292 91.9766 519.538 94.3145C519.825 96.6523 520.174 99.4209 520.584 102.62C520.994 105.778 521.486 109.429 522.061 113.571C522.635 117.673 523.312 122.431 524.091 127.845V129.937C524.091 130.183 523.988 130.367 523.783 130.49C523.619 130.613 523.394 130.695 523.106 130.736C522.86 130.818 522.594 130.859 522.307 130.859C522.061 130.9 521.876 130.921 521.753 130.921C521.138 130.921 520.481 130.736 519.784 130.367C519.087 130.039 518.677 129.567 518.554 128.952L516.277 112.525C516.277 112.402 516.216 112.341 516.093 112.341C516.011 112.3 515.929 112.279 515.847 112.279ZM505.019 113.633C505.019 113.756 504.998 113.981 504.957 114.31C504.957 114.597 504.957 114.904 504.957 115.232C504.998 115.561 505.06 115.848 505.142 116.094C505.224 116.34 505.388 116.463 505.634 116.463C506.659 116.504 507.705 116.114 508.771 115.294C509.879 114.474 510.884 113.469 511.786 112.279C512.688 111.049 513.427 109.736 514.001 108.342C514.616 106.947 514.944 105.696 514.985 104.589C515.067 103.481 514.801 102.641 514.186 102.066C513.611 101.451 512.606 101.308 511.171 101.636C509.407 103.194 507.931 104.979 506.741 106.988C505.593 108.998 505.019 111.213 505.019 113.633ZM533.042 119.662C533.042 119.457 533.042 119.272 533.042 119.108C533.083 118.944 533.186 118.78 533.35 118.616C533.842 118.001 534.396 117.365 535.011 116.709C535.626 116.012 536.221 115.335 536.795 114.679C537.369 113.981 537.902 113.264 538.395 112.525C538.887 111.787 539.297 111.049 539.625 110.311V109.941L531.565 111.603H530.643C530.068 111.603 529.351 111.562 528.489 111.479C527.669 111.397 526.849 111.233 526.028 110.987C525.249 110.7 524.572 110.311 523.998 109.818C523.465 109.326 523.198 108.67 523.198 107.85C523.239 106.906 523.731 105.86 524.675 104.712C525.618 103.563 526.726 102.436 527.997 101.328C529.269 100.221 530.54 99.1953 531.812 98.252C533.124 97.3086 534.17 96.5703 534.949 96.0371C535.811 95.5449 536.836 95.1553 538.025 94.8682C539.215 94.54 540.302 94.376 541.286 94.376C542.106 94.376 542.824 94.54 543.439 94.8682C544.055 95.1553 544.362 95.75 544.362 96.6523C544.362 97.0215 544.321 97.3701 544.239 97.6982C544.198 98.0264 543.952 98.252 543.501 98.375C542.188 98.252 540.958 98.3545 539.81 98.6826C538.661 98.9697 537.574 99.4209 536.549 100.036C535.523 100.651 534.56 101.39 533.657 102.251C532.755 103.071 531.873 103.933 531.012 104.835C530.766 105.122 530.458 105.532 530.089 106.065C529.72 106.558 529.535 106.845 529.535 106.927V106.988C530.602 106.988 531.647 106.886 532.673 106.681C533.739 106.476 534.785 106.271 535.811 106.065C536.877 105.819 537.923 105.594 538.948 105.389C540.015 105.184 541.102 105.081 542.209 105.081C542.619 105.081 543.07 105.122 543.562 105.204C544.055 105.245 544.506 105.368 544.916 105.573C545.367 105.778 545.716 106.065 545.962 106.435C546.249 106.763 546.393 107.193 546.393 107.727C546.393 108.506 546.188 109.265 545.777 110.003C545.408 110.7 544.834 111.562 544.055 112.587C543.316 113.571 542.353 114.781 541.163 116.217C540.015 117.652 538.641 119.498 537.041 121.754C536.959 121.877 536.754 121.959 536.426 122C536.139 122.041 535.893 122.062 535.688 122.062C535.113 122.062 534.519 121.815 533.903 121.323C533.329 120.831 533.042 120.277 533.042 119.662ZM547.038 119.662C547.038 119.088 547.243 118.555 547.653 118.062C548.104 117.57 548.617 117.324 549.191 117.324C549.889 117.324 550.442 117.509 550.853 117.878C551.304 118.247 551.734 118.657 552.145 119.108V119.293C552.145 119.99 551.898 120.626 551.406 121.2C550.955 121.733 550.34 122 549.561 122C549.027 122 548.474 121.754 547.899 121.262C547.325 120.77 547.038 120.236 547.038 119.662Z" fill="#009387"/>
</svg>
