<svg width="48" height="35" viewBox="0 0 48 35" fill="none" xmlns="http://www.w3.org/2000/svg">
<rect width="48" height="34" transform="translate(0 0.84375)" fill="#FDF3EA"/>
<path d="M17.3146 18.2636C18.6411 18.2636 19.6757 18.7953 20.4185 19.8586C21.2144 20.866 21.6123 22.1253 21.6123 23.6364C21.6123 25.2595 21.0817 26.6027 20.0206 27.666C18.9594 28.6734 17.6329 29.1772 16.0412 29.1772C14.2372 29.1772 12.7515 28.4776 11.5842 27.0784C10.417 25.6793 9.83331 23.8603 9.83331 21.6217C9.83331 18.4874 10.7884 15.6331 12.6985 13.0586C14.6086 10.4842 17.4472 8.30145 21.2144 6.5105V8.60926C18.9859 9.67264 17.0758 11.0718 15.4841 12.8068C13.8923 14.4858 13.0964 16.1648 13.0964 17.8438C13.0964 18.9631 13.3882 19.5229 13.9719 19.5229C14.078 19.5229 14.2107 19.4948 14.3698 19.4389C14.529 19.3269 14.6882 19.2431 14.8474 19.187C15.6432 18.5714 16.4657 18.2636 17.3146 18.2636ZM33.8689 18.2636C35.1953 18.2636 36.2301 18.7953 36.9728 19.8586C37.7687 20.866 38.1666 22.1253 38.1666 23.6364C38.1666 25.2595 37.6361 26.6027 36.5749 27.666C35.5137 28.6734 34.1872 29.1772 32.5955 29.1772C30.7915 29.1772 29.3058 28.4776 28.1385 27.0784C26.9713 25.6793 26.3876 23.8603 26.3876 21.6217C26.3876 18.4874 27.3427 15.6331 29.2528 13.0586C31.1629 10.4842 34.0015 8.30145 37.7687 6.5105V8.60926C35.5403 9.67264 33.6302 11.0718 32.0384 12.8068C30.4467 14.4858 29.6508 16.1648 29.6508 17.8438C29.6508 18.9631 29.9426 19.5229 30.5261 19.5229C30.6322 19.5229 30.765 19.4948 30.9241 19.4389C31.0833 19.3269 31.2425 19.2431 31.4016 19.187C32.1975 18.5714 33.0199 18.2636 33.8689 18.2636Z" fill="#FF6D2C"/>
</svg>
